<svg xmlns="http://www.w3.org/2000/svg" width="980" height="760" viewBox="0 0 980 760">
    <defs>
        <marker id="arrowhead" markerWidth="10" markerHeight="10" refX="7" refY="3" orient="auto">
            <polygon points="0 0, 8 3, 0 6" fill="#222" />
        </marker>
    </defs>
    <rect width="100%" height="100%" fill="#f8f6ef" />
    <text x="40" y="24" font-size="26" font-family="Segoe UI, Arial, sans-serif" fill="#1c355e">Derivatives from Scratch</text>
    <rect x="40" y="40" width="430" height="280" rx="18" fill="#fffdf8" stroke="#d5d0c2" /><text x="58" y="68" font-size="18" fill="#222">1. Function and Derivative</text><rect x="510" y="40" width="430" height="280" rx="18" fill="#fffdf8" stroke="#d5d0c2" /><text x="528" y="68" font-size="18" fill="#222">2. Partial Derivatives</text><rect x="40" y="380" width="430" height="280" rx="18" fill="#fffdf8" stroke="#d5d0c2" /><text x="58" y="408" font-size="18" fill="#222">3. Gradient</text><rect x="510" y="380" width="430" height="280" rx="18" fill="#fffdf8" stroke="#d5d0c2" /><text x="528" y="408" font-size="18" fill="#222">4. Chain Rule</text><line x1="80" y1="270" x2="420" y2="270" stroke="#444" stroke-width="2" /><line x1="80" y1="270" x2="80" y2="70" stroke="#444" stroke-width="2" /><text x="425" y="276" font-size="14" fill="#333">x</text><text x="72" y="66" font-size="14" fill="#333">f(x)</text><path d="M80,270 L110,268 L140,262 L170,252 L200,238 L230,220 L260,198 L290,172 L320,142 L350,108 L380,70 " stroke="#d1495b" stroke-width="3" fill="none" /><line x1="100" y1="342" x2="180" y2="182" stroke="#00798c" stroke-width="2" /><text x="150" y="252" font-size="12" fill="#00798c">tangent, slope=4</text><line x1="570" y1="90" x2="600" y2="240" stroke="#ccc" stroke-width="1" /><line x1="570" y1="120" x2="870" y2="105" stroke="#ccc" stroke-width="1" /><line x1="630" y1="90" x2="660" y2="240" stroke="#ccc" stroke-width="1" /><line x1="570" y1="150" x2="870" y2="135" stroke="#ccc" stroke-width="1" /><line x1="690" y1="90" x2="720" y2="240" stroke="#ccc" stroke-width="1" /><line x1="570" y1="180" x2="870" y2="165" stroke="#ccc" stroke-width="1" /><line x1="750" y1="90" x2="780" y2="240" stroke="#ccc" stroke-width="1" /><line x1="570" y1="210" x2="870" y2="195" stroke="#ccc" stroke-width="1" /><line x1="810" y1="90" x2="840" y2="240" stroke="#ccc" stroke-width="1" /><line x1="570" y1="240" x2="870" y2="225" stroke="#ccc" stroke-width="1" /><line x1="710" y1="190" x2="750" y2="170" stroke="#edae49" stroke-width="3" marker-end="url(#arrowhead)" /><text x="760" y="165" font-size="12" fill="#edae49">&#2202;f/&#2202;x</text><line x1="710" y1="190" x2="690" y2="150" stroke="#00798c" stroke-width="3" marker-end="url(#arrowhead)" /><text x="650" y="145" font-size="12" fill="#00798c">&#2202;f/&#2202;y</text><circle cx="250" cy="530" r="40" stroke="#d5d0c2" stroke-width="2" fill="none" /><circle cx="250" cy="530" r="80" stroke="#d5d0c2" stroke-width="2" fill="none" /><circle cx="250" cy="530" r="120" stroke="#d5d0c2" stroke-width="2" fill="none" /><line x1="280.0" y1="530.0" x2="300.0" y2="530.0" stroke="#d1495b" stroke-width="2" marker-end="url(#arrowhead)" /><line x1="271.2132034355964" y1="551.2132034355964" x2="285.3553390593274" y2="565.3553390593274" stroke="#d1495b" stroke-width="2" marker-end="url(#arrowhead)" /><line x1="250.0" y1="560.0" x2="250.0" y2="580.0" stroke="#d1495b" stroke-width="2" marker-end="url(#arrowhead)" /><line x1="228.78679656440357" y1="551.2132034355964" x2="214.64466094067262" y2="565.3553390593274" stroke="#d1495b" stroke-width="2" marker-end="url(#arrowhead)" /><line x1="220.0" y1="530.0" x2="200.0" y2="530.0" stroke="#d1495b" stroke-width="2" marker-end="url(#arrowhead)" /><line x1="228.78679656440357" y1="508.7867965644036" x2="214.64466094067262" y2="494.6446609406726" stroke="#d1495b" stroke-width="2" marker-end="url(#arrowhead)" /><line x1="250.0" y1="500.0" x2="250.0" y2="480.0" stroke="#d1495b" stroke-width="2" marker-end="url(#arrowhead)" /><line x1="271.2132034355964" y1="508.7867965644036" x2="285.3553390593274" y2="494.6446609406726" stroke="#d1495b" stroke-width="2" marker-end="url(#arrowhead)" /><text x="260" y="600" font-size="12" fill="#d1495b">&#8711;f direction</text><rect x="610" y="480" width="80" height="40" rx="8" fill="#fffdf8" stroke="#d5d0c2" /><text x="630" y="505" font-size="14" fill="#333">x</text><rect x="730" y="480" width="80" height="40" rx="8" fill="#fffdf8" stroke="#d5d0c2" /><text x="750" y="505" font-size="14" fill="#333">u = g(x)</text><rect x="850" y="480" width="80" height="40" rx="8" fill="#fffdf8" stroke="#d5d0c2" /><text x="870" y="505" font-size="14" fill="#333">y = f(u)</text><line x1="690" y1="500" x2="730" y2="500" stroke="#444" stroke-width="2" marker-end="url(#arrowhead)" /><line x1="810" y1="500" x2="850" y2="500" stroke="#444" stroke-width="2" marker-end="url(#arrowhead)" /><text x="700" y="475" font-size="12" fill="#00798c">du/dx</text><text x="820" y="475" font-size="12" fill="#edae49">dy/du</text></svg>